<svg id="Layer_1" data-name="Layer 1" xmlns="http://www.w3.org/2000/svg" viewBox="0 0 367.07 82.07"><defs><style>.cls-1{fill:#29aae1;}.cls-2{fill:#f29d43;}.cls-3{fill:#0a9ee8;}</style></defs><title>NSquard</title><polygon class="cls-1" points="27.04 40.63 27.09 40.6 27.06 40.67 27.04 40.63"/><polygon class="cls-1" points="30.84 32.89 30.81 32.95 30.79 32.91 30.84 32.89"/><path class="cls-1" d="M530.06,376.31l-.1.05,0,0L526.26,384h0l0,0,0,0,0,.06,0-.06,0-.07,3.69-7.58,0-.06,0,0,0,0Z" transform="translate(-499.17 -343.44)"/><polygon class="cls-1" points="30.93 32.84 30.91 32.89 30.89 32.87 30.79 32.91 30.81 32.95 27.09 40.6 27.09 40.6 27.04 40.63 27.06 40.67 27.09 40.73 13.65 68.31 5.37 68.31 23.1 32.84 30.93 32.84"/><path class="cls-1" d="M532.73,376.33,531.39,379l0,.07,0,.06-3.72,7.44,0,.06,0,.06,0,.07,0-.07,0-.06,3.72-7.44,0-.06,0-.06,1.35-2.7h7.58l-3.52,7.23,0,.06,0,.06-1.54,3.15,0,.07,0,.06-3.6,7.39,0,.06,0,.07,0,.06,0-.06,0-.07,3.6-7.38,0-.07,0-.06,1.54-3.15,0-.06,0-.07,3.58-7.35Z" transform="translate(-499.17 -343.44)"/><path class="cls-1" d="M532.7,376.28,531.35,379l0,.06,0,.07-3.71,7.43,0,.07,0,.06,0,.06,0,.07,0-.07,0-.06,3.72-7.44,0-.06,0-.06,1.35-2.7h7.58l-3.52,7.23,0,.06,0,.06-1.54,3.15,0,.07,0,.06-3.6,7.39,0,.06,0,.07,0,.06,0,.06,0-.06,0-.07,3.6-7.38,0-.06,0-.07,1.54-3.15,0-.06,0-.07,3.6-7.38h0l0-.06H532.7Z" transform="translate(-499.17 -343.44)"/><polygon class="cls-1" points="41.18 32.95 37.66 40.17 37.63 40.24 37.6 40.3 36.06 43.45 36.03 43.51 36 43.58 32.4 50.96 32.37 51.03 32.34 51.09 32.37 51.16 32.4 51.22 24.08 68.31 15.79 68.31 28.34 43.2 28.38 43.27 28.41 43.33 28.44 43.27 28.47 43.2 32.19 35.77 32.22 35.71 32.25 35.65 33.6 32.95 41.18 32.95"/><polygon class="cls-2" points="32.22 35.71 32.19 35.77 28.47 43.2 28.44 43.27 28.41 43.2 28.37 43.15 27.12 40.67 27.09 40.6 27.09 40.6 30.81 32.95 30.84 32.89 30.88 32.95 32.16 35.58 32.19 35.64 32.22 35.71"/><polygon class="cls-2" points="40.37 52.38 36.74 59.64 32.44 51.15 32.4 51.09 32.37 51.03 32.4 50.96 36 43.58 36.03 43.51 36.06 43.58 36.09 43.65 40.37 52.38"/><polygon class="cls-2" points="28.47 43.2 28.44 43.27 28.41 43.33 28.38 43.27 28.34 43.2 27.09 40.73 27.06 40.67 27.04 40.63 27.09 40.6 27.09 40.6 27.14 40.58 27.15 40.6 28.41 43.08 28.47 43.2"/><polygon class="cls-2" points="32.25 35.65 32.22 35.71 32.19 35.77 32.16 35.71 32.13 35.64 30.84 33.02 30.81 32.95 30.79 32.91 30.89 32.87 30.91 32.89 32.19 35.52 32.22 35.58 32.25 35.65"/><polygon class="cls-2" points="40.43 52.38 40.41 52.41 36.74 59.77 32.4 51.22 32.37 51.16 32.34 51.09 32.37 51.03 32.4 50.96 32.47 51.09 36.74 59.51 40.3 52.38 36.06 43.71 36.03 43.65 36 43.58 36.03 43.51 36.06 43.45 36.09 43.52 36.13 43.58 40.43 52.38"/><polygon class="cls-2" points="45.8 41.96 42.18 49.21 37.69 40.36 37.66 40.3 37.63 40.24 37.66 40.17 41.18 32.95 33.93 32.95 33.88 32.84 41.35 32.84 41.36 32.85 45.8 41.96"/><polygon class="cls-2" points="34 32.95 33.87 32.95 33.81 32.84 33.95 32.84 34 32.95"/><polygon class="cls-2" points="36.23 22.49 36.28 22.46 36.25 22.53 36.23 22.49"/><polygon class="cls-2" points="45.8 41.96 42.18 49.21 37.69 40.36 37.66 40.43 37.63 40.37 37.6 40.3 37.63 40.24 37.66 40.17 37.69 40.23 37.73 40.3 42.18 49.09 45.74 41.96 41.32 32.91 41.32 32.91 41.29 32.84 41.36 32.84 41.36 32.85 45.8 41.96"/><polygon class="cls-1" points="64.46 27.56 63.05 26.63 45.84 61.96 37.1 61.96 37.14 61.88 56.61 23.4 54.75 22.46 63.54 17.84 64.46 27.56"/><polygon class="cls-1" points="76.7 23.48 75.3 22.55 56.27 61.96 47.53 61.96 68.85 19.32 66.99 18.38 75.78 13.76 76.7 23.48"/><path class="cls-2" d="M499.17,343.44v68.31h2.27v-66H579v77.53h-79.8v2.27h82.07V343.44Z" transform="translate(-499.17 -343.44)"/><path class="cls-2" d="M613.76,348.89,630.33,374V348.65a5.61,5.61,0,0,1,1.06-3.7,3.59,3.59,0,0,1,2.86-1.23,3.68,3.68,0,0,1,2.93,1.23,5.5,5.5,0,0,1,1.08,3.7v33.47c0,3.74-1.55,5.6-4.65,5.6a6.24,6.24,0,0,1-2.09-.33,5.29,5.29,0,0,1-1.74-1.06,10.45,10.45,0,0,1-1.51-1.7c-.46-.65-.93-1.31-1.39-2l-16.17-24.78v24.93a5.38,5.38,0,0,1-1.13,3.69,3.75,3.75,0,0,1-2.9,1.24,3.69,3.69,0,0,1-2.93-1.26,5.39,5.39,0,0,1-1.11-3.67V350a9.27,9.27,0,0,1,.47-3.28,4.58,4.58,0,0,1,1.83-2.13,5,5,0,0,1,2.75-.83,4.55,4.55,0,0,1,3.44,1.39,10.67,10.67,0,0,1,1.28,1.66C612.85,347.45,613.3,348.15,613.76,348.89Z" transform="translate(-499.17 -343.44)"/><path class="cls-2" d="M683,374.23a12.45,12.45,0,0,1-2,6.93,13.09,13.09,0,0,1-5.82,4.82,21.79,21.79,0,0,1-9.08,1.74,20.44,20.44,0,0,1-10.4-2.38,13.82,13.82,0,0,1-4.71-4.57,10.37,10.37,0,0,1-1.82-5.56,3.77,3.77,0,0,1,3.86-3.8,3.29,3.29,0,0,1,2.31.87,6.77,6.77,0,0,1,1.61,2.58,17,17,0,0,0,1.76,3.4,7.11,7.11,0,0,0,2.65,2.25,9.87,9.87,0,0,0,4.5.89,10.16,10.16,0,0,0,6.23-1.79,5.35,5.35,0,0,0,2.39-4.45,4.7,4.7,0,0,0-1.29-3.44,8.25,8.25,0,0,0-3.34-2,54.23,54.23,0,0,0-5.47-1.48,40.34,40.34,0,0,1-7.67-2.51,12.42,12.42,0,0,1-4.91-3.92,10.18,10.18,0,0,1-1.81-6.17,10.57,10.57,0,0,1,1.91-6.24,12,12,0,0,1,5.55-4.19,22.59,22.59,0,0,1,8.53-1.47,21.11,21.11,0,0,1,6.78,1,14.21,14.21,0,0,1,4.74,2.59,10.72,10.72,0,0,1,2.76,3.38,7.79,7.79,0,0,1,.87,3.45,4,4,0,0,1-1.09,2.77,3.44,3.44,0,0,1-2.71,1.24,3.13,3.13,0,0,1-2.25-.74,10.09,10.09,0,0,1-1.67-2.43,10.93,10.93,0,0,0-2.79-3.76q-1.62-1.35-5.22-1.35a9,9,0,0,0-5.39,1.47,4.27,4.27,0,0,0-2,3.53,3.58,3.58,0,0,0,.69,2.2,6,6,0,0,0,1.92,1.6,13.12,13.12,0,0,0,2.47,1c.83.26,2.2.62,4.12,1.11a64.08,64.08,0,0,1,6.52,1.86,19.45,19.45,0,0,1,5,2.46,10.16,10.16,0,0,1,3.19,3.67A11.71,11.71,0,0,1,683,374.23Z" transform="translate(-499.17 -343.44)"/><path class="cls-2" d="M714.45,394.2V383a17.67,17.67,0,0,1-4.78,3.5,12.46,12.46,0,0,1-5.5,1.2,12.15,12.15,0,0,1-6.72-1.94,13.13,13.13,0,0,1-4.76-5.59,19.87,19.87,0,0,1-1.73-8.58,19.67,19.67,0,0,1,1.75-8.66,12.7,12.7,0,0,1,4.83-5.5,12.9,12.9,0,0,1,6.86-1.89,12.15,12.15,0,0,1,5.72,1.32,11.8,11.8,0,0,1,4.33,4V360a4.68,4.68,0,0,1,1-3.31,3.51,3.51,0,0,1,2.7-1.14,3.56,3.56,0,0,1,2.7,1.12,4.72,4.72,0,0,1,1,3.33V394.2c0,3.52-1.24,5.28-3.74,5.28-1.55,0-2.56-.48-3-1.42A8.66,8.66,0,0,1,714.45,394.2Zm-15.53-22.64a13.36,13.36,0,0,0,1,5.5,7.67,7.67,0,0,0,2.71,3.42,6.39,6.39,0,0,0,3.63,1.12,7.11,7.11,0,0,0,3.89-1.12,7.72,7.72,0,0,0,2.84-3.41,13.23,13.23,0,0,0,1.08-5.66,13.62,13.62,0,0,0-.63-4.29,9.23,9.23,0,0,0-1.69-3.18,6.92,6.92,0,0,0-5.43-2.51,6.53,6.53,0,0,0-5.31,2.64C699.62,365.83,698.92,368.32,698.92,371.56Z" transform="translate(-499.17 -343.44)"/><path class="cls-2" d="M753.44,383.25v-1a17.83,17.83,0,0,1-3,3,11.14,11.14,0,0,1-3.42,1.81,13.83,13.83,0,0,1-4.24.6,11,11,0,0,1-5.15-1.19,8.75,8.75,0,0,1-3.53-3.28,14.52,14.52,0,0,1-1.48-7.26v-15.7a5.15,5.15,0,0,1,1.07-3.56,3.7,3.7,0,0,1,2.85-1.18,3.78,3.78,0,0,1,2.9,1.19,5.1,5.1,0,0,1,1.1,3.55v12.68a19.53,19.53,0,0,0,.47,4.63,5.48,5.48,0,0,0,1.67,2.93,4.74,4.74,0,0,0,3.26,1.06,6.7,6.7,0,0,0,3.78-1.19,7,7,0,0,0,2.58-3.1c.44-1.13.67-3.58.67-7.38v-9.63a5.05,5.05,0,0,1,1.1-3.55,4,4,0,0,1,5.72,0,5.15,5.15,0,0,1,1.07,3.56v23a4.88,4.88,0,0,1-1,3.39,3.41,3.41,0,0,1-2.66,1.13,3.47,3.47,0,0,1-2.68-1.17A4.74,4.74,0,0,1,753.44,383.25Z" transform="translate(-499.17 -343.44)"/><path class="cls-2" d="M791.77,383.25a24.88,24.88,0,0,1-5.56,3.36,15.65,15.65,0,0,1-6,1.11,11.43,11.43,0,0,1-5.35-1.2,8.81,8.81,0,0,1-3.56-3.27,8.46,8.46,0,0,1-1.24-4.47,8,8,0,0,1,2.06-5.54,10.33,10.33,0,0,1,5.66-3.08l3.74-.78q3-.61,5.12-1.12c1.43-.34,3-.75,4.63-1.23a8.15,8.15,0,0,0-1.26-4.6c-.74-1-2.29-1.47-4.63-1.47a9.67,9.67,0,0,0-4.54.84,7.4,7.4,0,0,0-2.61,2.53c-.73,1.12-1.24,1.86-1.54,2.22a2.51,2.51,0,0,1-1.93.54,3.39,3.39,0,0,1-2.31-.86,2.78,2.78,0,0,1-1-2.19,6.72,6.72,0,0,1,1.48-4.07,10.7,10.7,0,0,1,4.61-3.25,20.86,20.86,0,0,1,7.81-1.27,22.23,22.23,0,0,1,8.22,1.23,7.62,7.62,0,0,1,4.22,3.9,17.19,17.19,0,0,1,1.23,7.09c0,1.85,0,3.43,0,4.73s0,2.74,0,4.32a16,16,0,0,0,.74,4.66,14.66,14.66,0,0,1,.75,3.12,3,3,0,0,1-1.15,2.22,3.84,3.84,0,0,1-2.6,1,3.53,3.53,0,0,1-2.41-1.14A17.44,17.44,0,0,1,791.77,383.25Zm-.53-11.46a42.09,42.09,0,0,1-5.06,1.35c-2.22.47-3.75.82-4.6,1a6.34,6.34,0,0,0-2.44,1.31A3.35,3.35,0,0,0,778,378.2a4,4,0,0,0,1.36,3.07,5.06,5.06,0,0,0,3.57,1.26,9.23,9.23,0,0,0,4.34-1,6.85,6.85,0,0,0,2.92-2.66c.72-1.2,1.07-3.17,1.07-5.92Z" transform="translate(-499.17 -343.44)"/><path class="cls-2" d="M817.9,376.29v6.62a5.12,5.12,0,0,1-1.13,3.61,3.78,3.78,0,0,1-2.87,1.2,3.63,3.63,0,0,1-2.82-1.21,5.21,5.21,0,0,1-1.1-3.6V360.85c0-3.56,1.28-5.35,3.86-5.35a3.23,3.23,0,0,1,2.84,1.25,6.93,6.93,0,0,1,1,3.69,13.92,13.92,0,0,1,2.92-3.69,6,6,0,0,1,4-1.25,10.27,10.27,0,0,1,4.85,1.25,3.75,3.75,0,0,1,2.35,3.31,3.18,3.18,0,0,1-1,2.4,3.11,3.11,0,0,1-2.17.94,9.87,9.87,0,0,1-2.1-.54,10,10,0,0,0-3-.53,4.28,4.28,0,0,0-2.84.91A5.76,5.76,0,0,0,819,366a19,19,0,0,0-.85,4.29Q817.91,372.72,817.9,376.29Z" transform="translate(-499.17 -343.44)"/><path class="cls-2" d="M859.68,373.56h-15.5a10.47,10.47,0,0,0,1.09,4.76,7.57,7.57,0,0,0,2.82,3.11,7.48,7.48,0,0,0,3.87,1,9.58,9.58,0,0,0,2.6-.33,8.66,8.66,0,0,0,2.28-1.05,17.6,17.6,0,0,0,2-1.52c.62-.54,1.42-1.28,2.41-2.21a2.6,2.6,0,0,1,1.74-.52,2.84,2.84,0,0,1,2,.67,2.35,2.35,0,0,1,.76,1.88,5.12,5.12,0,0,1-.84,2.51,10,10,0,0,1-2.54,2.76,14.49,14.49,0,0,1-4.27,2.19,18.38,18.38,0,0,1-5.91.87q-7.63,0-11.87-4.35t-4.24-11.81a19.64,19.64,0,0,1,1-6.52,14.35,14.35,0,0,1,3-5.15,13.3,13.3,0,0,1,4.93-3.3,17.81,17.81,0,0,1,6.5-1.14,15.39,15.39,0,0,1,8,2,12.8,12.8,0,0,1,5,5.06,13.35,13.35,0,0,1,1.65,6.33q0,3-1.71,3.87A10.67,10.67,0,0,1,859.68,373.56Zm-15.5-4.5h14.37q-.28-4.06-2.19-6.08a6.56,6.56,0,0,0-5-2,6.33,6.33,0,0,0-4.86,2.05A10.14,10.14,0,0,0,844.18,369.06Z" transform="translate(-499.17 -343.44)"/><path class="cls-3" d="M602.64,402.38h1.86l7.07,20,6.58-20.07h1.28L626,422.38l7.06-20h1.73L626.66,425h-1.35l-6.58-19.52L612.15,425H610.8Z" transform="translate(-499.17 -343.44)"/><path class="cls-3" d="M639.41,416.69v-.06c0-4.75,3.34-8.54,7.77-8.54,4.59,0,7.51,3.72,7.51,8.57a4.29,4.29,0,0,1,0,.64H641.08c.29,4.08,3.21,6.46,6.42,6.46a7.37,7.37,0,0,0,5.62-2.57l1.09,1a8.6,8.6,0,0,1-6.77,3.08C643.13,425.23,639.41,421.8,639.41,416.69Zm13.58-.8c-.22-3.31-2.12-6.36-5.88-6.36-3.24,0-5.74,2.73-6,6.36Z" transform="translate(-499.17 -343.44)"/><path class="cls-3" d="M664.07,421.32v3.53H662.5V401.41h1.57v10.73c1.41-2.16,3.5-4.05,6.74-4.05a8.13,8.13,0,0,1,8,8.51v.06a8.19,8.19,0,0,1-8,8.57A7.88,7.88,0,0,1,664.07,421.32Zm13-4.59v-.07c0-4.3-3-7.06-6.42-7.06a6.86,6.86,0,0,0-6.68,7v.06a6.85,6.85,0,0,0,6.68,7C674.22,423.73,677.07,421.12,677.07,416.73Z" transform="translate(-499.17 -343.44)"/><path class="cls-3" d="M698.65,421.57l1.09-1.25a10.94,10.94,0,0,0,8.06,3.34c3.37,0,5.69-1.89,5.69-4.46v-.07c0-2.37-1.26-3.75-6.36-4.78-5.39-1.09-7.58-2.92-7.58-6.32V408c0-3.34,3.05-5.91,7.23-5.91a11.2,11.2,0,0,1,7.7,2.73l-1.06,1.32a9.68,9.68,0,0,0-6.71-2.54c-3.31,0-5.49,1.9-5.49,4.24v.07c0,2.37,1.22,3.82,6.55,4.91s7.38,2.92,7.38,6.19V419c0,3.63-3.11,6.13-7.44,6.13A12.8,12.8,0,0,1,698.65,421.57Z" transform="translate(-499.17 -343.44)"/><path class="cls-3" d="M722.38,416.73v-.07a8.46,8.46,0,0,1,8.45-8.57,8.37,8.37,0,0,1,8.38,8.51v.06a8.46,8.46,0,0,1-8.45,8.57A8.36,8.36,0,0,1,722.38,416.73Zm15.12,0v-.07a6.86,6.86,0,0,0-6.74-7.09,6.76,6.76,0,0,0-6.68,7v.06a6.87,6.87,0,0,0,6.75,7.1A6.75,6.75,0,0,0,737.5,416.73Z" transform="translate(-499.17 -343.44)"/><path class="cls-3" d="M747.49,401.41h1.58v23.44h-1.58Z" transform="translate(-499.17 -343.44)"/><path class="cls-3" d="M758.15,418.49v-10h1.58v9.72c0,3.37,1.89,5.59,5.2,5.59a5.61,5.61,0,0,0,5.68-5.84v-9.47h1.57v16.37h-1.57V421.8a6.4,6.4,0,0,1-5.91,3.43C760.56,425.23,758.15,422.41,758.15,418.49Z" transform="translate(-499.17 -343.44)"/><path class="cls-3" d="M782.24,420.64V409.92h-2.38v-1.44h2.38v-5.24h1.57v5.24h5.75v1.44h-5.75v10.56c0,2.35,1.38,3.18,3.27,3.18a5.44,5.44,0,0,0,2.41-.58v1.48a5.91,5.91,0,0,1-2.66.58C784.29,425.14,782.24,423.76,782.24,420.64Z" transform="translate(-499.17 -343.44)"/><path class="cls-3" d="M797.46,402.05h2v2.15h-2Zm.19,6.43h1.57v16.37h-1.57Z" transform="translate(-499.17 -343.44)"/><path class="cls-3" d="M807.51,416.73v-.07a8.41,8.41,0,1,1,16.82-.06v.06a8.46,8.46,0,0,1-8.44,8.57A8.36,8.36,0,0,1,807.51,416.73Zm15.12,0v-.07a6.86,6.86,0,0,0-6.74-7.09,6.75,6.75,0,0,0-6.68,7v.06a6.87,6.87,0,0,0,6.74,7.1A6.75,6.75,0,0,0,822.63,416.73Z" transform="translate(-499.17 -343.44)"/><path class="cls-3" d="M832.39,408.48H834v3a6.4,6.4,0,0,1,5.9-3.44c4.15,0,6.55,2.83,6.55,6.74v10h-1.57v-9.73c0-3.37-1.89-5.59-5.2-5.59a5.61,5.61,0,0,0-5.68,5.85v9.47h-1.58Z" transform="translate(-499.17 -343.44)"/><path class="cls-3" d="M853.88,422.79l.93-1.25a9.57,9.57,0,0,0,5.87,2.15c2.22,0,4-1.22,4-3.11v-.07c0-1.92-2-2.63-4.33-3.27-2.67-.77-5.62-1.57-5.62-4.49v-.07c0-2.63,2.21-4.53,5.39-4.53a11,11,0,0,1,5.81,1.8l-.83,1.32a9.38,9.38,0,0,0-5-1.64c-2.25,0-3.73,1.22-3.73,2.86v.06c0,1.83,2.22,2.51,4.56,3.18,2.63.74,5.4,1.7,5.4,4.59v.07c0,2.92-2.51,4.78-5.66,4.78A11.14,11.14,0,0,1,853.88,422.79Z" transform="translate(-499.17 -343.44)"/></svg>