<svg id="Layer_1" data-name="Layer 1" xmlns="http://www.w3.org/2000/svg" viewBox="0 0 82.07 82.07"><defs><style>.cls-1{fill:#29aae1;}.cls-2{fill:#f29d43;}</style></defs><title>NSquard logo</title><polygon class="cls-1" points="27.04 40.63 27.09 40.6 27.06 40.67 27.04 40.63"/><polygon class="cls-1" points="30.84 32.89 30.81 32.95 30.79 32.91 30.84 32.89"/><path class="cls-1" d="M530.06,376.31l-.1.05,0,0L526.26,384h0l0,0,0,0,0,.06,0-.06,0-.07,3.69-7.58,0-.06,0,0,0,0Z" transform="translate(-499.17 -343.44)"/><polygon class="cls-1" points="30.93 32.84 30.91 32.89 30.89 32.87 30.79 32.91 30.81 32.95 27.09 40.6 27.09 40.6 27.04 40.63 27.06 40.67 27.09 40.73 13.65 68.31 5.37 68.31 23.1 32.84 30.93 32.84"/><path class="cls-1" d="M532.73,376.33,531.39,379l0,.07,0,.06-3.72,7.44,0,.06,0,.06,0,.07,0-.07,0-.06,3.72-7.44,0-.06,0-.06,1.35-2.7h7.58l-3.52,7.23,0,.06,0,.06-1.54,3.15,0,.07,0,.06-3.6,7.39,0,.06,0,.07,0,.06,0-.06,0-.07,3.6-7.38,0-.07,0-.06,1.54-3.15,0-.06,0-.07,3.58-7.35Z" transform="translate(-499.17 -343.44)"/><path class="cls-1" d="M532.7,376.28,531.35,379l0,.06,0,.07-3.71,7.43,0,.07,0,.06,0,.06,0,.07,0-.07,0-.06,3.72-7.44,0-.06,0-.06,1.35-2.7h7.58l-3.52,7.23,0,.06,0,.06-1.54,3.15,0,.07,0,.06-3.6,7.39,0,.06,0,.07,0,.06,0,.06,0-.06,0-.07,3.6-7.38,0-.06,0-.07,1.54-3.15,0-.06,0-.07,3.6-7.38h0l0-.06H532.7Z" transform="translate(-499.17 -343.44)"/><polygon class="cls-1" points="41.18 32.95 37.66 40.17 37.63 40.24 37.6 40.3 36.06 43.45 36.03 43.51 36 43.58 32.4 50.96 32.37 51.03 32.34 51.09 32.37 51.16 32.4 51.22 24.08 68.31 15.79 68.31 28.34 43.2 28.38 43.27 28.41 43.33 28.44 43.27 28.47 43.2 32.19 35.77 32.22 35.71 32.25 35.65 33.6 32.95 41.18 32.95"/><polygon class="cls-2" points="32.22 35.71 32.19 35.77 28.47 43.2 28.44 43.27 28.41 43.2 28.37 43.15 27.12 40.67 27.09 40.6 27.09 40.6 30.81 32.95 30.84 32.89 30.88 32.95 32.16 35.58 32.19 35.64 32.22 35.71"/><polygon class="cls-2" points="40.37 52.38 36.74 59.64 32.44 51.15 32.4 51.09 32.37 51.03 32.4 50.96 36 43.58 36.03 43.51 36.06 43.58 36.09 43.65 40.37 52.38"/><polygon class="cls-2" points="28.47 43.2 28.44 43.27 28.41 43.33 28.38 43.27 28.34 43.2 27.09 40.73 27.06 40.67 27.04 40.63 27.09 40.6 27.09 40.6 27.14 40.58 27.15 40.6 28.41 43.08 28.47 43.2"/><polygon class="cls-2" points="32.25 35.65 32.22 35.71 32.19 35.77 32.16 35.71 32.13 35.64 30.84 33.02 30.81 32.95 30.79 32.91 30.89 32.87 30.91 32.89 32.19 35.52 32.22 35.58 32.25 35.65"/><polygon class="cls-2" points="40.43 52.38 40.41 52.41 36.74 59.77 32.4 51.22 32.37 51.16 32.34 51.09 32.37 51.03 32.4 50.96 32.47 51.09 36.74 59.51 40.3 52.38 36.06 43.71 36.03 43.65 36 43.58 36.03 43.51 36.06 43.45 36.09 43.52 36.13 43.58 40.43 52.38"/><polygon class="cls-2" points="45.8 41.96 42.18 49.21 37.69 40.36 37.66 40.3 37.63 40.24 37.66 40.17 41.18 32.95 33.93 32.95 33.88 32.84 41.35 32.84 41.36 32.85 45.8 41.96"/><polygon class="cls-2" points="34 32.95 33.87 32.95 33.81 32.84 33.95 32.84 34 32.95"/><polygon class="cls-2" points="36.23 22.49 36.28 22.46 36.25 22.53 36.23 22.49"/><polygon class="cls-2" points="45.8 41.96 42.18 49.21 37.69 40.36 37.66 40.43 37.63 40.37 37.6 40.3 37.63 40.24 37.66 40.17 37.69 40.23 37.73 40.3 42.18 49.09 45.74 41.96 41.32 32.91 41.32 32.91 41.29 32.84 41.36 32.84 41.36 32.85 45.8 41.96"/><polygon class="cls-1" points="64.46 27.56 63.05 26.63 45.84 61.96 37.1 61.96 37.14 61.88 56.61 23.4 54.75 22.46 63.54 17.84 64.46 27.56"/><polygon class="cls-1" points="76.7 23.48 75.3 22.55 56.27 61.96 47.53 61.96 68.85 19.32 66.99 18.38 75.78 13.76 76.7 23.48"/><path class="cls-2" d="M499.17,343.44v68.31h2.27v-66H579v77.53h-79.8v2.27h82.07V343.44Z" transform="translate(-499.17 -343.44)"/></svg>